<?xml version="1.0" encoding="iso-8859-1"?>
<!-- Generator: Adobe Illustrator 19.0.0, SVG Export Plug-In . SVG Version: 6.00 Build 0)  -->
<svg version="1.1" id="Capa_1" xmlns="http://www.w3.org/2000/svg" xmlns:xlink="http://www.w3.org/1999/xlink" x="0px" y="0px"
	 viewBox="0 0 512 512" style="enable-background:new 0 0 512 512;" xml:space="preserve">
<g>
	<g>
		<path d="M486.4,375.467c14.132-0.015,25.585-11.468,25.6-25.6V281.6c-0.015-14.132-11.468-25.585-25.6-25.6H281.6v-66.25
			l39.408-78.817H332.8c2.263,0.001,4.434-0.898,6.035-2.499c1.6-1.6,2.499-3.771,2.499-6.035V51.2
			c0.001-2.263-0.898-4.434-2.499-6.035c-1.6-1.6-3.771-2.499-6.035-2.499h-25.6V8.533c0.001-2.263-0.898-4.434-2.499-6.035
			c-1.6-1.6-3.771-2.499-6.035-2.499h-85.333c-2.263-0.001-4.434,0.898-6.035,2.499c-1.6,1.6-2.499,3.771-2.499,6.035v34.133h-25.6
			c-2.263-0.001-4.434,0.898-6.035,2.499c-1.6,1.6-2.499,3.771-2.499,6.035v51.2c-0.001,2.263,0.898,4.434,2.499,6.035
			c1.6,1.6,3.771,2.499,6.035,2.499h11.792L230.4,189.75v91.85c0.015,14.132,11.468,25.585,25.6,25.6h204.8v17.067H25.6
			c-14.132,0.015-25.585,11.468-25.6,25.6v68.267c0.015,14.132,11.468,25.585,25.6,25.6h435.2V460.8H25.6
			C11.461,460.8,0,472.262,0,486.4S11.461,512,25.6,512h460.8c14.132-0.015,25.585-11.468,25.6-25.6v-68.267
			c-0.015-14.132-11.468-25.585-25.6-25.6H51.2v-17.067H486.4z M221.867,17.067h68.267v25.6h-68.267V17.067z M187.733,59.733h25.6
			h85.333h25.6v34.133h-8.533H196.267h-8.533V59.733z M301.925,110.933L267.792,179.2h-23.583l-34.133-68.267H301.925z
			 M36.632,407.101c1.6,1.6,3.771,2.499,6.035,2.499H486.4c4.711,0.005,8.529,3.822,8.533,8.533V486.4
			c-0.005,4.711-3.822,8.529-8.533,8.533H25.6c-4.713,0-8.533-3.82-8.533-8.533s3.82-8.533,8.533-8.533h443.733
			c2.263,0.001,4.434-0.898,6.035-2.499s2.499-3.771,2.499-6.035V435.2c0.001-2.263-0.898-4.434-2.499-6.035
			s-3.771-2.499-6.035-2.499H25.6c-4.711-0.005-8.529-3.822-8.533-8.533v-68.267c0.005-4.711,3.822-8.529,8.533-8.533h443.733
			c2.263,0.001,4.434-0.898,6.035-2.499c1.6-1.6,2.499-3.771,2.499-6.035v-34.133c0.001-2.263-0.898-4.434-2.499-6.035
			c-1.6-1.6-3.771-2.499-6.035-2.499H256c-4.711-0.005-8.529-3.822-8.533-8.533v-85.333h17.067v68.267
			c-0.001,2.263,0.898,4.434,2.499,6.035c1.6,1.6,3.771,2.499,6.035,2.499H486.4c4.711,0.005,8.529,3.823,8.533,8.533v68.267
			c-0.005,4.711-3.822,8.529-8.533,8.533H42.667c-2.263-0.001-4.434,0.898-6.035,2.499c-1.6,1.6-2.499,3.771-2.499,6.035v34.133
			C34.133,403.33,35.032,405.501,36.632,407.101z"/>
	</g>
</g>
<g>
</g>
<g>
</g>
<g>
</g>
<g>
</g>
<g>
</g>
<g>
</g>
<g>
</g>
<g>
</g>
<g>
</g>
<g>
</g>
<g>
</g>
<g>
</g>
<g>
</g>
<g>
</g>
<g>
</g>
</svg>
