<?xml version="1.0" encoding="iso-8859-1"?>
<!-- Generator: Adobe Illustrator 19.0.0, SVG Export Plug-In . SVG Version: 6.00 Build 0)  -->
<svg version="1.1" id="Capa_1" xmlns="http://www.w3.org/2000/svg" xmlns:xlink="http://www.w3.org/1999/xlink" x="0px" y="0px"
	 viewBox="0 0 512 512" style="enable-background:new 0 0 512 512;" xml:space="preserve">
<g>
	<g>
		<g>
			<path d="M432.707,121.973l0.002-0.002L313.242,2.503l-0.002,0.002C311.695,0.958,309.559,0,307.2,0H102.4
				C88.268,0.015,76.815,11.468,76.8,25.6v460.8c0.015,14.132,11.468,25.585,25.6,25.6h307.2c14.132-0.015,25.585-11.468,25.6-25.6
				V128C435.2,125.647,434.247,123.517,432.707,121.973z M315.733,29.131l90.336,90.336h-81.803
				c-4.711-0.005-8.529-3.822-8.533-8.533V29.131z M409.6,494.933H102.4c-4.711-0.005-8.529-3.822-8.533-8.533V25.6
				c0.005-4.711,3.822-8.529,8.533-8.533h196.267v93.867c0.015,14.132,11.468,25.585,25.6,25.6h93.867V486.4
				C418.129,491.111,414.311,494.929,409.6,494.933z"/>
			<path d="M193.05,260.962l51.2,26.458v0.004c3.634,1.871,7.663,2.846,11.75,2.846c4.088,0.001,8.117-0.976,11.75-2.85l51.2-26.458
				c8.521-4.378,13.87-13.162,13.85-22.741v-49.775c0.02-9.58-5.33-18.363-13.85-22.741l-51.2-26.462
				c-7.374-3.795-16.127-3.793-23.5,0.004l-51.2,26.458c-8.521,4.378-13.87,13.162-13.85,22.741v49.775
				C179.18,247.801,184.529,256.584,193.05,260.962z M200.883,245.804c-2.84-1.461-4.623-4.389-4.617-7.583v-45.252l51.2,25.632
				v51.276L200.883,245.804z M311.117,245.804l-46.583,24.069v-51.271l51.2-25.632v45.251
				C315.74,241.415,313.957,244.344,311.117,245.804z M252.083,154.408c2.458-1.264,5.374-1.266,7.834-0.004l46.618,24.091
				l-50.534,25.299l-50.534-25.299L252.083,154.408z"/>
			<path d="M358.4,332.8H153.6c-4.713,0-8.533,3.821-8.533,8.533s3.82,8.533,8.533,8.533h204.8c4.713,0,8.533-3.82,8.533-8.533
				S363.113,332.8,358.4,332.8z"/>
			<path d="M358.4,401.067H153.6c-4.713,0-8.533,3.82-8.533,8.533s3.82,8.533,8.533,8.533h204.8c4.713,0,8.533-3.82,8.533-8.533
				S363.113,401.067,358.4,401.067z"/>
			<path d="M153.6,384h128c4.713,0,8.533-3.82,8.533-8.533s-3.821-8.533-8.533-8.533h-128c-4.713,0-8.533,3.82-8.533,8.533
				S148.887,384,153.6,384z"/>
			<path d="M358.4,366.933h-42.667c-4.713,0-8.533,3.82-8.533,8.533s3.82,8.533,8.533,8.533H358.4c4.713,0,8.533-3.82,8.533-8.533
				S363.113,366.933,358.4,366.933z"/>
		</g>
	</g>
</g>
<g>
</g>
<g>
</g>
<g>
</g>
<g>
</g>
<g>
</g>
<g>
</g>
<g>
</g>
<g>
</g>
<g>
</g>
<g>
</g>
<g>
</g>
<g>
</g>
<g>
</g>
<g>
</g>
<g>
</g>
</svg>
