<?xml version="1.0" encoding="iso-8859-1"?>
<!-- Generator: Adobe Illustrator 19.0.0, SVG Export Plug-In . SVG Version: 6.00 Build 0)  -->
<svg version="1.1" id="Capa_1" xmlns="http://www.w3.org/2000/svg" xmlns:xlink="http://www.w3.org/1999/xlink" x="0px" y="0px"
	 viewBox="0 0 512 512" style="enable-background:new 0 0 512 512;" xml:space="preserve">
<g>
	<g>
		<path d="M486.4,0H179.2c-14.132,0.015-25.585,11.468-25.6,25.6v27.669c-5.711,1.217-11.065,3.897-15.492,7.864L22.296,164.463
			C7.992,178.834-0.027,198.294,0,218.571l0.341,90.875c-0.013,24.569,9.846,48.113,27.362,65.341
			c17.516,17.229,41.219,26.698,65.784,26.279h0.367l59.746,0.073v85.26c0.015,14.132,11.468,25.585,25.6,25.6h307.2
			c14.132-0.015,25.585-11.468,25.6-25.6V25.6C511.985,11.468,500.532,0.015,486.4,0z M121.408,179.2
			c-0.004-1.215,0.119-2.427,0.367-3.617c1.428-5.945,4.642-11.31,9.208-15.375l22.617-21.523V179.2H121.408z M93.838,384
			c-20.096,0.467-39.532-7.185-53.915-21.227c-14.383-14.042-22.5-33.289-22.515-53.39L17.067,218.5
			c-0.047-15.567,6.04-30.526,16.942-41.638L149.504,73.837c1.228-1.132,2.612-2.054,4.096-2.748v44.032l-34.346,32.687
			c-7.174,6.473-12.146,15.025-14.221,24.462c-1.837,6.433-0.688,13.351,3.129,18.846c2.789,3.346,6.949,5.241,11.304,5.15h119.467
			h51.2c9.426,0,17.067,7.641,17.067,17.067c0,9.426-7.641,17.067-17.067,17.067h-77.229c-4.713,0-8.533,3.82-8.533,8.533
			c0,0.66,0.082,1.299,0.224,1.916c0.304,1.672,1.109,3.226,2.333,4.442c1.615,1.605,3.813,2.484,6.089,2.433l94.271-0.258
			c8.878-0.026,16.294,6.759,17.054,15.604c0.109,0.71,0.148,1.428,0.117,2.146c-0.013,0.192-0.133,1.088-0.133,1.279
			c-1.545,8.842-9.305,15.237-18.279,15.062l-15.533,0.083c-0.012,0-0.023,0.002-0.035,0.002c-0.031,0-0.062-0.002-0.094-0.002
			l-77.229,0.087c-3.049,0.002-5.865,1.629-7.388,4.27s-1.521,5.894,0.004,8.533c1.526,2.639,4.344,4.264,7.392,4.263h0.008
			l77.388-0.087c4.654-0.004,9.106,1.9,12.318,5.268s4.903,7.905,4.678,12.553c-0.536,9.203-8.203,16.363-17.421,16.271h-33.704
			c-0.003,0-0.005,0-0.008,0c-0.004,0-0.009,0-0.013,0l-43.092,0.083l0.033,17.067l43.075-0.083
			c4.519,0.049,8.818,1.953,11.891,5.267c3.539,3.673,5.441,8.623,5.271,13.721c-0.924,8.841-8.533,15.458-17.417,15.146
			l-94.037,0.083L93.838,384z M221.867,401.097l17.067-0.015c0.024,14.125,11.473,25.569,25.6,25.585h59.733
			c14.132-0.015,25.585-11.468,25.6-25.6V110.933c-0.015-14.132-11.468-25.585-25.6-25.6h-59.733
			c-14.132,0.015-25.585,11.468-25.6,25.6V179.2h-17.067V76.8c0.006-4.71,3.823-8.527,8.533-8.533h128
			c4.71,0.006,8.527,3.823,8.533,8.533v358.4c-0.006,4.71-3.823,8.527-8.533,8.533h-128c-4.71-0.006-8.527-3.823-8.533-8.533
			V401.097z M285.601,349.867h4.533c18.326,0.097,33.497-14.216,34.467-32.517c0.362-7.503-1.771-14.857-5.975-20.961
			c5.481-2.048,10.342-5.422,14.175-9.758v114.436c-0.006,4.71-3.823,8.527-8.533,8.533h-59.733
			c-4.71-0.006-8.527-3.823-8.533-8.533l0.171,0c17.991,0.23,33.072-13.545,34.467-31.483
			C290.894,362.606,289.108,355.772,285.601,349.867z M290.133,179.2H256v-68.267c0.006-4.71,3.823-8.527,8.533-8.533h59.733
			c4.71,0.006,8.527,3.823,8.533,8.533v130.819c-3.836-4.29-8.733-7.587-14.26-9.495c3.616-5.417,5.727-11.923,5.727-18.924
			C324.267,194.482,308.985,179.2,290.133,179.2z M494.933,486.4c-0.005,4.711-3.822,8.529-8.533,8.533H179.2
			c-4.71-0.006-8.527-3.823-8.533-8.533v-85.258l34.133-0.03V435.2c0.015,14.132,11.468,25.585,25.6,25.6h128
			c14.132-0.015,25.585-11.468,25.6-25.6V76.8c-0.015-14.132-11.468-25.585-25.6-25.6h-128c-14.132,0.015-25.585,11.468-25.6,25.6
			v102.4h-34.133V25.6c0.006-4.71,3.823-8.527,8.533-8.533h307.2c4.711,0.005,8.529,3.822,8.533,8.533V486.4z"/>
	</g>
</g>
<g>
</g>
<g>
</g>
<g>
</g>
<g>
</g>
<g>
</g>
<g>
</g>
<g>
</g>
<g>
</g>
<g>
</g>
<g>
</g>
<g>
</g>
<g>
</g>
<g>
</g>
<g>
</g>
<g>
</g>
</svg>
